<svg xmlns="http://www.w3.org/2000/svg" version="1.1" xmlns:xlink="http://www.w3.org/1999/xlink" xmlns:svgjs="http://svgjs.dev/svgjs" width="1440" height="1680" preserveAspectRatio="none" viewBox="0 0 1440 1680"><g mask="url(&quot;#SvgjsMask1276&quot;)" fill="none"><rect width="1440" height="1680" x="0" y="0" fill="url(&quot;#SvgjsLinearGradient1277&quot;)"></rect><path d="M211.03 360C252.15 220.79 87.58 111.48 133.71 0C162.06 -68.52 246.86 0 360 0C540 0 540 0 720 0C881.47 0 896.68 -26.25 1042.94 0C1076.68 6.06 1056.04 64.62 1080 64.62C1111.63 64.62 1108.05 8.27 1154.12 0C1288.05 -24.04 1376.73 -79.67 1440 0C1519.67 100.33 1440 180 1440 360C1440 540 1440 540 1440 720C1440 807.43 1498.27 856.57 1440 894.86C1318.27 974.85 1256.75 912.59 1080 956.57C896.75 1002.16 865.06 1128.27 720 1074C548.91 1009.99 565.21 907.59 447.69 720C385.21 620.27 406.57 499.35 360 499.35C312.43 499.35 331.66 625.14 259.41 720C151.66 861.47 76.44 972 0 972C-53.26 972 0 846 0 720C0 586.37 -56.65 549.38 0 452.73C48.86 369.38 185.29 447.15 211.03 360" stroke="rgba(28, 118, 211, 0.81)" stroke-width="2"></path><path d="M720 281.54C618.52 281.54 508.97 320.32 508.97 360C508.97 399.81 618.69 440.53 720 440.53C786.66 440.53 844.9 399.9 844.9 360C844.9 320.4 786.48 281.54 720 281.54" stroke="rgba(28, 118, 211, 0.81)" stroke-width="2"></path><path d="M0 1173.33C103.43 1100.07 182.93 1205.27 360 1185C542.93 1164.06 546 1072.78 720 1090.91C906 1110.28 891.26 1222.42 1080 1260C1251.26 1294.11 1325.35 1176.96 1440 1234.29C1505.35 1266.96 1440 1337.14 1440 1440C1440 1620 1530 1710 1440 1800C1350 1890 1260 1800 1080 1800C900 1800 900 1800 720 1800C540 1800 540 1800 360 1800C208.42 1800 204.82 1813.45 56.84 1800C24.82 1797.09 4.74 1797.32 0 1767.27C-23.68 1617.32 0 1603.64 0 1440C0 1306.66 -76.57 1227.57 0 1173.33" stroke="rgba(28, 118, 211, 0.81)" stroke-width="2"></path><path d="M720 166.15C564.43 166.15 387.69 43.85 387.69 0C387.69 -39.22 553.85 0 720 0C815.3 0 910.59 -35.71 910.59 0C910.59 47.37 825.88 166.15 720 166.15" stroke="rgba(28, 118, 211, 0.81)" stroke-width="2"></path><path d="M1028.57 360C1028.57 321.25 1049.71 323.32 1080 295.38C1244.84 143.32 1246.92 141.04 1418.82 0C1426.92 -6.65 1439.41 -10 1440 0C1450 170 1440 180 1440 360C1440 497.64 1518 574.63 1440 635.29C1338 714.63 1194.88 716.87 1080 640C989.16 579.22 1028.57 493.56 1028.57 360" stroke="rgba(28, 118, 211, 0.81)" stroke-width="2"></path><path d="M0 589.09C36.99 589.09 127.06 655.48 127.06 720C127.06 782.65 37.44 843.43 0 843.43C-26.09 843.43 0 781.71 0 720C0 654.55 -26.54 589.09 0 589.09" stroke="rgba(28, 118, 211, 0.81)" stroke-width="2"></path><path d="M563.08 720C563.08 634.89 627.05 558.95 720 558.95C875.51 558.95 1060 631.13 1060 720C1060 813.66 870.66 924 720 924C622.2 924 563.08 817.42 563.08 720" stroke="rgba(28, 118, 211, 0.81)" stroke-width="2"></path><path d="M0 1284.44C99.74 1284.44 181.42 1332.26 293.02 1440C361.42 1506.04 304.55 1632 360 1632C434.04 1632 444.83 1519.89 552 1440C624.83 1385.71 638.26 1363.64 720 1363.64C785.26 1363.64 780.76 1405.97 846 1440C960.76 1499.86 955.81 1532.61 1080 1551.43C1252.81 1577.61 1337.06 1458.93 1440 1530C1517.06 1583.21 1517.14 1742.14 1440 1800C1337.14 1877.14 1260 1800 1080 1800C900 1800 900 1800 720 1800C540 1800 540 1800 360 1800C326.84 1800 323.14 1813.84 293.68 1800C143.14 1729.29 93.93 1746.05 0 1630.91C-52.91 1566.05 0 1535.45 0 1440C0 1362.22 -46.77 1284.44 0 1284.44" stroke="rgba(28, 118, 211, 0.81)" stroke-width="2"></path><path d="M720 50.77C672.46 50.77 618.46 13.4 618.46 0C618.46 -11.99 669.23 0 720 0C749.12 0 778.24 -10.91 778.24 0C778.24 14.47 752.35 50.77 720 50.77" stroke="rgba(28, 118, 211, 0.81)" stroke-width="2"></path><path d="M1421.05 360C1421.05 353.26 1434.15 345 1440 345C1443.63 345 1440 352.5 1440 360C1440 365.29 1443.11 370.59 1440 370.59C1433.63 370.59 1421.05 366.05 1421.05 360" stroke="rgba(28, 118, 211, 0.81)" stroke-width="2"></path><path d="M678.46 720C678.46 697.47 695.4 677.37 720 677.37C761.17 677.37 810 696.48 810 720C810 744.79 759.88 774 720 774C694.11 774 678.46 745.79 678.46 720" stroke="rgba(28, 118, 211, 0.81)" stroke-width="2"></path><path d="M0 1395.56C28.5 1395.56 83.72 1415.91 83.72 1440C83.72 1465.4 27.08 1494.55 0 1494.55C-14.78 1494.55 0 1467.28 0 1440C0 1417.78 -13.36 1395.56 0 1395.56" stroke="rgba(28, 118, 211, 0.81)" stroke-width="2"></path><path d="M600 1800C600 1764.85 644.54 1685.39 720 1680C884.54 1668.25 903.4 1714.69 1080 1765.71C1111.09 1774.69 1135.38 1790.73 1135.38 1800C1135.38 1807.88 1107.69 1800 1080 1800C900 1800 900 1800 720 1800C660 1800 600 1824.85 600 1800" stroke="rgba(28, 118, 211, 0.81)" stroke-width="2"></path></g><defs><mask id="SvgjsMask1276"><rect width="1440" height="1680" fill="#ffffff"></rect></mask><linearGradient x1="50%" y1="100%" x2="50%" y2="0%" gradientUnits="userSpaceOnUse" id="SvgjsLinearGradient1277"><stop stop-color="#0e2a47" offset="0"></stop><stop stop-color="rgba(80, 27, 135, 1)" offset="1"></stop></linearGradient></defs></svg>